<svg viewBox="0 0 256 256" width="256" height="256" xmlns="http://www.w3.org/2000/svg"><defs/><g><path d="M9.470765594641323,9.254498714652957 L247.00289927073388,9.254498714652957 L247.00289927073388,246.7866323907455 L9.470765594641323,246.7866323907455 L9.470765594641323,9.254498714652957 Z" fill="rgb(32,31,35)" opacity="1"/><path d="M43.53355569262157,156.73031117583963 C35.381240223238585,146.03061795047154 37.59812224937286,128.05690911040327 42.50798160647803,109.51970304307864 C45.56113649709359,97.99249681447297 49.665875890271835,86.8467093774679 55.63977973074352,76.81241792376161 C67.66568877243748,56.61264913896798 85.941882191352,42.33522150337037 106.66742248077898,39.477883312639335 C130.76868991873104,36.155148612660774 151.74913428944774,46.85769599170848 154.29487960260988,63.33566466680944 C155.77544851241143,72.91901457651986 149.0728411563204,83.60354660262492 145.06453703541973,95.52569256473339 C142.3113926330563,103.71453962566031 140.81403441748498,112.34014763531204 140.91049197175295,121.08765129495478 C150.2483851021484,104.67877085925065 164.05632376700459,93.18141806153523 179.63231432697222,89.75166662721247 C192.41348013865692,86.93732094523655 205.31761965424383,89.56191564400584 211.27701950277074,97.86329824941939 C220.3081609860016,110.44358531212644 210.20012109302368,135.66811545530925 211.75022393090913,161.32110160541075 C213.0382228485572,182.63647345573554 222.1210768503927,201.8754644015553 216.86666514337506,205.90114640034804 C214.0775652732864,208.03802294636657 208.10435468765624,206.01185954139868 202.43568486152182,201.8593633396108 C192.9775156364687,194.9309281003895 187.0162788217587,182.73060251360397 183.83858130779166,169.38868043436298 C180.79453765955014,156.60791921271203 181.1751004710693,143.52777369467066 184.23149831804503,130.43025586507449 C177.78748798261603,137.75777266491912 172.60484949602804,146.05446158884274 168.40115208388468,154.76124164738303 C160.16365849850317,171.82289900510997 156.08799433127496,190.12505545380574 144.59950173117932,196.8232095450299 C135.8616731166868,201.91763964302996 124.63845214639731,200.76089227915375 116.80012111099137,193.75980992561404 C105.04997396226507,183.26475077554048 105.08527889775343,161.2743079261886 109.01319728936295,138.0207211815762 C111.61504951587787,122.61755074525364 116.30179342072478,107.76319393814617 123.37596836154128,93.63713489176556 C112.50125509591294,102.66765903118143 103.91726514933411,113.98078304731958 98.1701452218019,126.46853578461858 C92.209880734671,139.41942424748646 89.6783739925409,153.37797162559468 81.37326931692678,160.63612469243438 C69.87614153262794,170.68391054785903 52.680445279827495,168.73535599003702 43.53355569262157,156.73031117583963 Z" fill="rgb(48,35,74)" opacity="1"/></g></svg>